<svg xmlns="http://www.w3.org/2000/svg" width="1700" height="300" viewBox="0 0 1700 300"><rect width="100%" height="100%" fill="#DDDDDD"/><path fill="#999999" d="M520.645 190.345h19.5v13.88h-60v-13.88h21.97v-63.22q0-3.75.22-7.73l-15.59 13.06q-1.35 1.05-2.67 1.31-1.31.26-2.47.04-1.16-.23-2.07-.79-.89-.56-1.34-1.24l-5.86-8.02 33.08-28.13h15.23v94.72Zm35.85-94.57h74.92v8.03q0 3.59-.75 5.81-.75 2.21-1.5 3.71l-41.1 84.6q-1.28 2.63-3.6 4.46-2.32 1.84-6.22 1.84h-13.43l41.93-82.88q1.42-2.54 2.81-4.68 1.39-2.14 3.11-4.09h-51.9q-1.73 0-3-1.27-1.27-1.28-1.27-3v-12.53Zm163.27 54.22q0 14.18-3.04 24.64-3.03 10.46-8.4 17.29-5.36 6.83-12.67 10.16-7.32 3.34-15.79 3.34-8.47 0-15.71-3.34-7.24-3.33-12.57-10.16-5.32-6.83-8.32-17.29-3-10.46-3-24.64 0-14.24 3-24.67 3-10.43 8.32-17.25 5.33-6.82 12.57-10.16t15.71-3.34q8.47 0 15.79 3.34 7.31 3.34 12.67 10.16 5.37 6.82 8.4 17.25 3.04 10.43 3.04 24.67Zm-19.12 0q0-11.77-1.73-19.49-1.72-7.73-4.61-12.3-2.89-4.58-6.64-6.42-3.75-1.83-7.8-1.83-3.97 0-7.69 1.83-3.71 1.84-6.56 6.42-2.85 4.57-4.54 12.3-1.68 7.72-1.68 19.49 0 11.78 1.68 19.5 1.69 7.73 4.54 12.3 2.85 4.58 6.56 6.42 3.72 1.84 7.69 1.84 4.05 0 7.8-1.84t6.64-6.42q2.89-4.57 4.61-12.3 1.73-7.72 1.73-19.5Zm106.12 0q0 14.18-3.04 24.64-3.03 10.46-8.4 17.29-5.36 6.83-12.67 10.16-7.32 3.34-15.79 3.34-8.47 0-15.71-3.34-7.24-3.33-12.56-10.16-5.33-6.83-8.33-17.29-3-10.46-3-24.64 0-14.24 3-24.67 3-10.43 8.33-17.25 5.32-6.82 12.56-10.16t15.71-3.34q8.47 0 15.79 3.34 7.31 3.34 12.67 10.16 5.37 6.82 8.4 17.25 3.04 10.43 3.04 24.67Zm-19.12 0q0-11.77-1.73-19.49-1.72-7.73-4.61-12.3-2.89-4.58-6.64-6.42-3.75-1.83-7.8-1.83-3.97 0-7.69 1.83-3.71 1.84-6.56 6.42-2.85 4.57-4.54 12.3-1.68 7.72-1.68 19.49 0 11.78 1.68 19.5 1.69 7.73 4.54 12.3 2.85 4.58 6.56 6.42 3.72 1.84 7.69 1.84 4.05 0 7.8-1.84t6.64-6.42q2.89-4.57 4.61-12.3 1.73-7.72 1.73-19.5Zm138.22 29.41-9.82 9.67-25.43-25.42-25.65 25.57-9.82-9.68 25.65-25.72-24.45-24.45 9.75-9.75 24.45 24.45 24.3-24.3 9.9 9.75-24.38 24.38 25.5 25.5Zm62.4-51.68-9.75-1.72q1.12-7.8 4.35-13.69 3.23-5.89 8.06-9.83 4.84-3.93 11.1-5.92 6.26-1.99 13.46-1.99 7.5 0 13.54 2.14 6.04 2.13 10.32 5.92 4.27 3.79 6.56 8.89 2.28 5.1 2.28 11.03 0 5.17-1.16 9.11-1.16 3.93-3.34 6.86-2.17 2.93-5.4 4.95-3.22 2.03-7.27 3.37 9.75 3.08 14.55 9.38 4.8 6.3 4.8 15.83 0 8.1-3 14.32-3 6.22-8.1 10.46-5.1 4.24-11.81 6.42-6.72 2.17-14.22 2.17-8.17 0-14.25-1.87-6.07-1.88-10.57-5.55-4.5-3.68-7.65-9-3.15-5.33-5.4-12.3l8.17-3.38q3.23-1.35 6.04-.71 2.81.64 4.09 3.04 1.35 2.62 2.96 5.17 1.61 2.55 3.86 4.54 2.25 1.98 5.29 3.22 3.04 1.24 7.24 1.24 4.72 0 8.25-1.54 3.52-1.53 5.89-4.01 2.36-2.48 3.52-5.51 1.17-3.04 1.17-6.11 0-3.91-.83-7.09-.83-3.19-3.45-5.44-2.63-2.25-7.54-3.53-4.91-1.27-13.16-1.27v-13.2q6.82-.07 11.32-1.28 4.5-1.2 7.17-3.33 2.66-2.14 3.71-5.14 1.05-3 1.05-6.6 0-7.65-4.27-11.63-4.28-3.97-11.41-3.97-3.3 0-6.07.94-2.77.94-4.99 2.62-2.21 1.69-3.71 3.94t-2.25 4.95q-1.28 3.45-3.34 4.58-2.06 1.12-5.81.52Zm152.4 22.27q0 14.18-3.04 24.64-3.03 10.46-8.4 17.29-5.36 6.83-12.67 10.16-7.32 3.34-15.79 3.34-8.48 0-15.71-3.34-7.24-3.33-12.57-10.16-5.32-6.83-8.32-17.29-3-10.46-3-24.64 0-14.24 3-24.67 3-10.43 8.32-17.25 5.33-6.82 12.57-10.16 7.23-3.34 15.71-3.34 8.47 0 15.79 3.34 7.31 3.34 12.67 10.16 5.37 6.82 8.4 17.25 3.04 10.43 3.04 24.67Zm-19.13 0q0-11.77-1.72-19.49-1.72-7.73-4.61-12.3-2.89-4.58-6.64-6.42-3.75-1.83-7.8-1.83-3.98 0-7.69 1.83-3.71 1.84-6.56 6.42-2.85 4.57-4.54 12.3-1.69 7.72-1.69 19.49 0 11.78 1.69 19.5 1.69 7.73 4.54 12.3 2.85 4.58 6.56 6.42 3.71 1.84 7.69 1.84 4.05 0 7.8-1.84t6.64-6.42q2.89-4.57 4.61-12.3 1.72-7.72 1.72-19.5Zm106.13 0q0 14.18-3.04 24.64-3.03 10.46-8.4 17.29-5.36 6.83-12.67 10.16-7.32 3.34-15.79 3.34-8.48 0-15.71-3.34-7.24-3.33-12.57-10.16-5.32-6.83-8.32-17.29-3-10.46-3-24.64 0-14.24 3-24.67 3-10.43 8.32-17.25 5.33-6.82 12.57-10.16 7.23-3.34 15.71-3.34 8.47 0 15.79 3.34 7.31 3.34 12.67 10.16 5.37 6.82 8.4 17.25 3.04 10.43 3.04 24.67Zm-19.13 0q0-11.77-1.72-19.49-1.72-7.73-4.61-12.3-2.89-4.58-6.64-6.42-3.75-1.83-7.8-1.83-3.98 0-7.69 1.83-3.71 1.84-6.56 6.42-2.85 4.57-4.54 12.3-1.69 7.72-1.69 19.49 0 11.78 1.69 19.5 1.69 7.73 4.54 12.3 2.85 4.58 6.56 6.42 3.71 1.84 7.69 1.84 4.05 0 7.8-1.84t6.64-6.42q2.89-4.57 4.61-12.3 1.72-7.72 1.72-19.5Z"/></svg>